<svg xmlns="http://www.w3.org/2000/svg" viewBox="0 0 1600 960"><defs><linearGradient id="sky" x2="0" y2="1"><stop stop-color="#6f9fc6"/><stop offset="1" stop-color="#dae8f0"/></linearGradient><linearGradient id="water" x2="0.3" y2="1"><stop stop-color="#3d6b88"/><stop offset="1" stop-color="#93b7c9"/></linearGradient><linearGradient id="concrete" x2="0.2" y2="1"><stop stop-color="#e6e6e3"/><stop offset="1" stop-color="#a7a8a4"/></linearGradient><filter id="grain"><feTurbulence type="fractalNoise" baseFrequency=".65" numOctaves="3" stitchTiles="stitch"/><feColorMatrix type="saturate" values="0"/><feComponentTransfer><feFuncA type="linear" slope=".12"/></feComponentTransfer><feBlend in="SourceGraphic" mode="multiply"/></filter></defs><rect width="1600" height="960" fill="url(#sky)"/><path d="M0 460Q190 340 360 422T740 416T1160 400T1600 374V660H0Z" fill="#86a06a" opacity=".35"/><path d="M0 540Q140 434 350 480T780 457T1200 440T1600 467V740H0Z" fill="#62814d" opacity=".45"/><path d="M0 650L780 361 1600 651V960H0Z" fill="#bdbfbc"/><path d="M0 842l1060-424M360 960l1080-486" stroke="#dededa" stroke-width="35"/><ellipse cx="455" cy="675" rx="270" ry="112" fill="#9fa1a0"/><path d="M185 638v37M725 638v37" stroke="#9fa1a0" stroke-width="5"/><ellipse cx="455" cy="638" rx="270" ry="112" fill="#dcdcd8"/><ellipse cx="455" cy="638" rx="253" ry="100" fill="#3f6d82"/><path d="M185 638H725" stroke="#c9cbc8" stroke-width="8"/><path d="M455 526V750" stroke="#adb0ae" stroke-width="3"/><ellipse cx="1030" cy="552" rx="203" ry="80" fill="#9fa1a0"/><path d="M827 515v37M1233 515v37" stroke="#9fa1a0" stroke-width="5"/><ellipse cx="1030" cy="515" rx="203" ry="80" fill="#dcdcd8"/><ellipse cx="1030" cy="515" rx="186" ry="68" fill="#3f6d82"/><path d="M827 515H1233" stroke="#c9cbc8" stroke-width="8"/><path d="M1030 435V595" stroke="#adb0ae" stroke-width="3"/><ellipse cx="1160" cy="866" rx="293" ry="121" fill="#9fa1a0"/><path d="M867 829v37M1453 829v37" stroke="#9fa1a0" stroke-width="5"/><ellipse cx="1160" cy="829" rx="293" ry="121" fill="#dcdcd8"/><ellipse cx="1160" cy="829" rx="276" ry="109" fill="#3f6d82"/><path d="M867 829H1453" stroke="#c9cbc8" stroke-width="8"/><path d="M1160 708V950" stroke="#adb0ae" stroke-width="3"/><rect width="1600" height="960" opacity=".25" filter="url(#grain)"/><text x="1530" y="914" text-anchor="end" fill="#f5f5f2" opacity=".75" font-size="12" font-family="monospace" letter-spacing="3">ALDERSPAN / CONCEPT STUDY</text></svg>