<svg xmlns="http://www.w3.org/2000/svg" viewBox="0 0 1600 960"><defs><linearGradient id="sky" x2="0" y2="1"><stop stop-color="#6f9fc6"/><stop offset="1" stop-color="#dae8f0"/></linearGradient><linearGradient id="water" x2="0.3" y2="1"><stop stop-color="#3d6b88"/><stop offset="1" stop-color="#93b7c9"/></linearGradient><linearGradient id="concrete" x2="0.2" y2="1"><stop stop-color="#e6e6e3"/><stop offset="1" stop-color="#a7a8a4"/></linearGradient><filter id="grain"><feTurbulence type="fractalNoise" baseFrequency=".65" numOctaves="3" stitchTiles="stitch"/><feColorMatrix type="saturate" values="0"/><feComponentTransfer><feFuncA type="linear" slope=".12"/></feComponentTransfer><feBlend in="SourceGraphic" mode="multiply"/></filter></defs><rect width="1600" height="960" fill="url(#sky)"/><path d="M0 460Q190 340 360 422T740 416T1160 400T1600 374V660H0Z" fill="#86a06a" opacity=".35"/><path d="M0 540Q140 434 350 480T780 457T1200 440T1600 467V740H0Z" fill="#62814d" opacity=".45"/><path d="M0 770L200 603l247 207 180-152 240 302H0Z" fill="#57743f"/><path d="M851 960l264-269 149 20 336-253v502Z" fill="#41602f"/><path d="M-30 359h37v380h-37Z" fill="url(#concrete)"/><path d="M7 359l17-8v380l-17 8Z" fill="#a3a5a3"/><path d="M172 348h37v361h-37Z" fill="url(#concrete)"/><path d="M209 348l17-8v361l-17 8Z" fill="#a3a5a3"/><path d="M374 337h37v342h-37Z" fill="url(#concrete)"/><path d="M411 337l17-8v342l-17 8Z" fill="#a3a5a3"/><path d="M576 326h37v323h-37Z" fill="url(#concrete)"/><path d="M613 326l17-8v323l-17 8Z" fill="#a3a5a3"/><path d="M778 315h37v304h-37Z" fill="url(#concrete)"/><path d="M815 315l17-8v304l-17 8Z" fill="#a3a5a3"/><path d="M980 304h37v285h-37Z" fill="url(#concrete)"/><path d="M1017 304l17-8v285l-17 8Z" fill="#a3a5a3"/><path d="M1182 293h37v266h-37Z" fill="url(#concrete)"/><path d="M1219 293l17-8v266l-17 8Z" fill="#a3a5a3"/><path d="M1384 282h37v247h-37Z" fill="url(#concrete)"/><path d="M1421 282l17-8v247l-17 8Z" fill="#a3a5a3"/><path d="M1586 271h37v228h-37Z" fill="url(#concrete)"/><path d="M1623 271l17-8v228l-17 8Z" fill="#a3a5a3"/><path d="M0 333L1600 238v38L0 390Z" fill="url(#concrete)"/><path d="M0 333L1600 238l-80-20L0 305Z" fill="#d5d6d3"/><path d="M0 298L1600 207" stroke="#57743f" stroke-width="3"/><rect width="1600" height="960" opacity=".25" filter="url(#grain)"/><text x="1530" y="914" text-anchor="end" fill="#f5f5f2" opacity=".75" font-size="12" font-family="monospace" letter-spacing="3">ALDERSPAN / CONCEPT STUDY</text></svg>